<svg width="113" height="36" viewBox="0 0 113 36" fill="none" xmlns="http://www.w3.org/2000/svg">
<rect y="0.808594" width="112.889" height="34.3153" rx="17.1576" fill="#080809"/>
<g clip-path="url(#clip0_68_60)">
<path d="M30.0766 17.4781L19.4803 26.9602C18.984 26.645 18.6894 26.1208 18.6946 25.5624V9.3939C18.6894 8.83541 18.984 8.31123 19.4803 7.99609L30.0766 17.4781Z" fill="#2196F3"/>
<path d="M33.7843 14.1659L30.0766 17.478L19.4802 7.99594C19.5201 7.96719 19.5617 7.94043 19.6048 7.91581C20.1648 7.60038 20.8643 7.5902 21.4347 7.8891L33.7843 14.1659Z" fill="#4CAF50"/>
<path d="M38.2778 17.478C38.2847 18.1085 37.9161 18.6909 37.3197 18.9916L33.7844 20.7901L30.0767 17.478L33.7844 14.166L37.3197 15.9645C37.9161 16.2652 38.2847 16.8476 38.2778 17.478Z" fill="#F0BB1F"/>
<path d="M33.7843 20.7896L21.4347 27.0664C20.863 27.3607 20.1662 27.3505 19.6048 27.0397C19.5617 27.0151 19.5201 26.9883 19.4802 26.9596L30.0766 17.4775L33.7843 20.7896Z" fill="#F15A2B"/>
</g>
<path d="M50.6675 12.4563H47.705V13.5544H49.2833C49.0723 14.0799 48.5575 14.4015 47.7725 14.4015C46.6246 14.4015 45.9156 13.7191 45.9156 12.7858C45.9156 11.821 46.6584 11.1386 47.6543 11.1386C48.3211 11.1386 48.8529 11.421 49.0976 11.7818L50.2455 11.17C49.7476 10.4327 48.7938 9.91504 47.6628 9.91504C45.9241 9.91504 44.5652 11.1857 44.5652 12.7779C44.5652 14.3545 45.8988 15.6251 47.7556 15.6251C49.4099 15.6251 50.6675 14.6054 50.6675 12.9269V12.4563Z" fill="white"/>
<path d="M52.3573 14.3074V13.3348H54.4674V12.1426H52.3573V11.2327H54.6784V10.0248H51.0069V15.5153H54.7206V14.3074H52.3573Z" fill="white"/>
<path d="M59.0275 10.0248H54.6385V11.2327H56.1578V15.5153H57.5082V11.2327H59.0275V10.0248Z" fill="white"/>
<path d="M60.8847 10.0248V15.5153H62.2352V10.0248H60.8847Z" fill="white"/>
<path d="M66.7952 10.0248H62.4063V11.2327H63.9255V15.5153H65.276V11.2327H66.7952V10.0248Z" fill="white"/>
<path d="M71.4715 15.6251C73.168 15.6251 74.5438 14.3858 74.5438 12.7701C74.5438 11.1543 73.168 9.91504 71.4715 9.91504C69.775 9.91504 68.3992 11.1543 68.3992 12.7701C68.3992 14.3858 69.775 15.6251 71.4715 15.6251ZM71.4715 14.4015C70.5093 14.4015 69.7497 13.7505 69.7497 12.7701C69.7497 11.7896 70.5093 11.1386 71.4715 11.1386C72.4337 11.1386 73.1933 11.7896 73.1933 12.7701C73.1933 13.7505 72.4337 14.4015 71.4715 14.4015Z" fill="white"/>
<path d="M78.1739 10.0248V13.0054L75.895 10.0248H74.8821V15.5153H76.2326V12.5348L78.5115 15.5153H79.5243V10.0248H78.1739Z" fill="white"/>
<path d="M50.6675 21.7822V21.994C50.6675 22.679 50.4059 23.2568 49.8826 23.7274C49.3593 24.1928 48.67 24.4255 47.8147 24.4255C46.9144 24.4255 46.1717 24.1536 45.5865 23.6098C45.0013 23.0607 44.7087 22.3888 44.7087 21.594C44.7087 20.7992 44.9985 20.1299 45.578 19.5861C46.1576 19.037 46.8919 18.7625 47.781 18.7625C48.3211 18.7625 48.8163 18.8828 49.2665 19.1233C49.7222 19.3638 50.0739 19.6854 50.3215 20.0881L49.9248 20.3077C49.7279 19.9626 49.4353 19.6854 49.047 19.4763C48.6644 19.2671 48.2424 19.1625 47.781 19.1625C47.0157 19.1625 46.3855 19.3978 45.8903 19.8684C45.4008 20.3338 45.156 20.909 45.156 21.594C45.156 22.279 45.4036 22.8568 45.8988 23.3274C46.3939 23.7928 47.0326 24.0255 47.8147 24.0255C48.5068 24.0255 49.0667 23.8503 49.4943 23.5C49.922 23.1496 50.1611 22.7078 50.2118 22.1744H47.705V21.7822H50.6675Z" fill="white"/>
<path d="M56.6587 23.6019C56.0679 24.151 55.3477 24.4255 54.498 24.4255C53.6483 24.4255 52.9281 24.151 52.3373 23.6019C51.7465 23.0477 51.451 22.3784 51.451 21.594C51.451 20.8097 51.7465 20.143 52.3373 19.5939C52.9281 19.0396 53.6483 18.7625 54.498 18.7625C55.3477 18.7625 56.0679 19.0396 56.6587 19.5939C57.2496 20.143 57.545 20.8097 57.545 21.594C57.545 22.3784 57.2496 23.0477 56.6587 23.6019ZM52.6496 23.3196C53.156 23.7902 53.7721 24.0255 54.498 24.0255C55.2239 24.0255 55.8372 23.7902 56.338 23.3196C56.8444 22.8437 57.0976 22.2685 57.0976 21.594C57.0976 20.9195 56.8444 20.3469 56.338 19.8763C55.8372 19.4004 55.2239 19.1625 54.498 19.1625C53.7721 19.1625 53.156 19.4004 52.6496 19.8763C52.1488 20.3469 51.8984 20.9195 51.8984 21.594C51.8984 22.2685 52.1488 22.8437 52.6496 23.3196Z" fill="white"/>
<path d="M63.5495 23.6019C62.9587 24.151 62.2384 24.4255 61.3888 24.4255C60.5391 24.4255 59.8188 24.151 59.228 23.6019C58.6372 23.0477 58.3418 22.3784 58.3418 21.594C58.3418 20.8097 58.6372 20.143 59.228 19.5939C59.8188 19.0396 60.5391 18.7625 61.3888 18.7625C62.2384 18.7625 62.9587 19.0396 63.5495 19.5939C64.1403 20.143 64.4357 20.8097 64.4357 21.594C64.4357 22.3784 64.1403 23.0477 63.5495 23.6019ZM59.5403 23.3196C60.0467 23.7902 60.6629 24.0255 61.3888 24.0255C62.1146 24.0255 62.7279 23.7902 63.2287 23.3196C63.7352 22.8437 63.9884 22.2685 63.9884 21.594C63.9884 20.9195 63.7352 20.3469 63.2287 19.8763C62.7279 19.4004 62.1146 19.1625 61.3888 19.1625C60.6629 19.1625 60.0467 19.4004 59.5403 19.8763C59.0395 20.3469 58.7891 20.9195 58.7891 21.594C58.7891 22.2685 59.0395 22.8437 59.5403 23.3196Z" fill="white"/>
<path d="M71.1914 21.7822V21.994C71.1914 22.679 70.9298 23.2568 70.4065 23.7274C69.8832 24.1928 69.1939 24.4255 68.3386 24.4255C67.4383 24.4255 66.6955 24.1536 66.1103 23.6098C65.5251 23.0607 65.2325 22.3888 65.2325 21.594C65.2325 20.7992 65.5223 20.1299 66.1019 19.5861C66.6815 19.037 67.4158 18.7625 68.3048 18.7625C68.845 18.7625 69.3402 18.8828 69.7903 19.1233C70.2461 19.3638 70.5978 19.6854 70.8454 20.0881L70.4487 20.3077C70.2517 19.9626 69.9591 19.6854 69.5709 19.4763C69.1882 19.2671 68.7662 19.1625 68.3048 19.1625C67.5396 19.1625 66.9093 19.3978 66.4142 19.8684C65.9246 20.3338 65.6799 20.909 65.6799 21.594C65.6799 22.279 65.9275 22.8568 66.4226 23.3274C66.9178 23.7928 67.5564 24.0255 68.3386 24.0255C69.0307 24.0255 69.5906 23.8503 70.0182 23.5C70.4458 23.1496 70.685 22.7078 70.7356 22.1744H68.2288V21.7822H71.1914Z" fill="white"/>
<path d="M72.7599 23.9471H75.5452V24.3392H72.3125V18.8488H72.7599V23.9471Z" fill="white"/>
<path d="M76.9223 23.9471H79.8764V24.3392H76.475V18.8488H79.8342V19.241H76.9223V21.3744H79.6232V21.7666H76.9223V23.9471Z" fill="white"/>
<path d="M85.2344 18.8488C85.7633 18.8488 86.2022 19.0109 86.5511 19.3351C86.9 19.6593 87.0744 20.0645 87.0744 20.5508C87.0744 21.0371 86.9 21.4424 86.5511 21.7666C86.2022 22.0855 85.7633 22.245 85.2344 22.245H83.6729V24.3392H83.2256V18.8488H85.2344ZM85.2344 21.8528C85.6395 21.8528 85.9715 21.73 86.2304 21.4842C86.4948 21.2384 86.6271 20.9273 86.6271 20.5508C86.6271 20.1691 86.4948 19.8554 86.2304 19.6096C85.9715 19.3638 85.6395 19.241 85.2344 19.241H83.6729V21.8528H85.2344Z" fill="white"/>
<path d="M88.6267 23.9471H91.412V24.3392H88.1794V18.8488H88.6267V23.9471Z" fill="white"/>
<path d="M96.4821 24.3392L95.9081 22.9431H92.9456L92.3716 24.3392H91.899L94.1947 18.8488H94.6674L96.9547 24.3392H96.4821ZM93.1144 22.5509H95.7478L94.4311 19.3586L93.1144 22.5509Z" fill="white"/>
<path d="M101.159 18.8488L99.0063 22.0803V24.3392H98.5589V22.0803L96.4066 18.8488H96.9131L98.7868 21.6803L100.652 18.8488H101.159Z" fill="white"/>
<defs>
<clipPath id="clip0_68_60">
<rect width="21.1008" height="19.6087" fill="white" transform="translate(17.9358 7.67188)"/>
</clipPath>
</defs>
</svg>
