<svg width="106" height="36" viewBox="0 0 106 36" fill="none" xmlns="http://www.w3.org/2000/svg">
<rect x="0.27417" y="0.808594" width="105.504" height="34.3153" rx="17.1576" fill="#080809"/>
<path d="M23.2604 24.3385C20.7481 24.3251 18.6699 19.5592 18.6699 17.132C18.6699 13.1673 21.8705 12.2993 23.104 12.2993C23.6598 12.2993 24.2534 12.5021 24.7769 12.6816C25.143 12.8069 25.5217 12.9361 25.7322 12.9361C25.8583 12.9361 26.1553 12.8262 26.4176 12.7297C26.9768 12.5228 27.6728 12.2656 28.4832 12.2656C28.4846 12.2656 28.4866 12.2656 28.488 12.2656C29.0931 12.2656 30.9279 12.389 32.031 13.9284L32.2894 14.2893L31.9175 14.55C31.3862 14.9225 30.4169 15.6021 30.4169 16.948C30.4169 18.5422 31.5147 19.1553 32.0421 19.4501C32.2749 19.5803 32.5159 19.7145 32.5159 20.008C32.5159 20.1997 30.8699 24.3148 28.4798 24.3148C27.8949 24.3148 27.4815 24.1514 27.1169 24.0073C26.7479 23.8615 26.4296 23.7358 25.9037 23.7358C25.6371 23.7358 25.2999 23.8529 24.943 23.9773C24.4553 24.1464 23.9033 24.3385 23.2769 24.3385H23.2604Z" fill="white"/>
<path d="M28.7363 8.65234C28.7985 10.7381 27.1934 12.1851 25.5901 12.0944C25.3259 10.4298 27.1932 8.65234 28.7363 8.65234Z" fill="white"/>
<path d="M41.4524 13.5541H42.5602L41.0536 9.43624H39.7622L38.2556 13.5541H39.3634L39.585 12.907H41.2308L41.4524 13.5541ZM39.8888 12.0246L40.4079 10.5128L40.927 12.0246H39.8888Z" fill="white"/>
<path d="M44.8021 10.6128L44.1437 12.4776L43.4854 10.6128H42.4346L43.6057 13.5541H44.6818L45.8529 10.6128H44.8021Z" fill="white"/>
<path d="M48.3756 10.6128V10.8893C48.1667 10.6657 47.8565 10.5304 47.4324 10.5304C46.6031 10.5304 45.9194 11.2069 45.9194 12.0834C45.9194 12.9599 46.6031 13.6364 47.4324 13.6364C47.8565 13.6364 48.1667 13.5011 48.3756 13.2776V13.5541H49.3251V10.6128H48.3756ZM47.6223 12.8011C47.1855 12.8011 46.869 12.5246 46.869 12.0834C46.869 11.6422 47.1855 11.3657 47.6223 11.3657C48.059 11.3657 48.3756 11.6422 48.3756 12.0834C48.3756 12.5246 48.059 12.8011 47.6223 12.8011Z" fill="white"/>
<path d="M50.0217 13.5541H50.9713V9.25977H50.0217V13.5541Z" fill="white"/>
<path d="M52.1409 10.3539C52.4511 10.3539 52.7106 10.1127 52.7106 9.8245C52.7106 9.53625 52.4511 9.29506 52.1409 9.29506C51.8307 9.29506 51.5712 9.53625 51.5712 9.8245C51.5712 10.1127 51.8307 10.3539 52.1409 10.3539ZM51.6661 13.5541H52.6156V10.6128H51.6661V13.5541Z" fill="white"/>
<path d="M55.2032 10.5304C54.7791 10.5304 54.4689 10.6657 54.26 10.8893V9.43624H53.3105V13.5541H54.26V13.2776C54.4689 13.5011 54.7791 13.6364 55.2032 13.6364C56.0325 13.6364 56.7162 12.9599 56.7162 12.0834C56.7162 11.2069 56.0325 10.5304 55.2032 10.5304ZM55.0133 12.8011C54.5765 12.8011 54.26 12.5246 54.26 12.0834C54.26 11.6422 54.5765 11.3657 55.0133 11.3657C55.4501 11.3657 55.7666 11.6422 55.7666 12.0834C55.7666 12.5246 55.4501 12.8011 55.0133 12.8011Z" fill="white"/>
<path d="M57.2545 13.5541H58.2041V9.25977H57.2545V13.5541Z" fill="white"/>
<path d="M59.7472 12.4364H61.9944C62.0197 12.3246 62.0324 12.207 62.0324 12.0834C62.0324 11.1951 61.3487 10.5304 60.4245 10.5304C59.4243 10.5304 58.7407 11.2069 58.7407 12.0834C58.7407 12.9599 59.4117 13.6364 60.4941 13.6364C61.0955 13.6364 61.5639 13.4305 61.8741 13.0305L61.1145 12.6246C60.9879 12.754 60.7663 12.8482 60.5068 12.8482C60.1586 12.8482 59.8674 12.7423 59.7472 12.4364ZM59.7282 11.7775C59.8168 11.4775 60.0573 11.3128 60.4182 11.3128C60.703 11.3128 60.9879 11.4363 61.0892 11.7775H59.7282Z" fill="white"/>
<path d="M65.6728 13.6364C66.6033 13.6364 67.3503 12.9599 67.3503 12.0834C67.3503 11.2069 66.6033 10.5304 65.6728 10.5304C64.7422 10.5304 63.9953 11.2069 63.9953 12.0834C63.9953 12.9599 64.7422 13.6364 65.6728 13.6364ZM65.6728 12.7776C65.2613 12.7776 64.9448 12.5011 64.9448 12.0834C64.9448 11.6658 65.2613 11.3893 65.6728 11.3893C66.0842 11.3893 66.4008 11.6658 66.4008 12.0834C66.4008 12.5011 66.0842 12.7776 65.6728 12.7776Z" fill="white"/>
<path d="M69.7421 10.5304C69.3243 10.5304 69.0078 10.6716 68.8369 10.8893V10.6128H67.8874V13.5541H68.8369V11.9481C68.8369 11.5305 69.0775 11.3422 69.4256 11.3422C69.7295 11.3422 69.9764 11.5128 69.9764 11.8775V13.5541H70.9259V11.7481C70.9259 10.954 70.3815 10.5304 69.7421 10.5304Z" fill="white"/>
<path d="M75.0153 11.4599V10.6128H74.3633V9.7892L73.4137 10.0539V10.6128H72.9073V11.4599H73.4137V12.5011C73.4137 13.3247 73.7746 13.6717 75.0153 13.5541V12.754C74.5975 12.7776 74.3633 12.754 74.3633 12.5011V11.4599H75.0153Z" fill="white"/>
<path d="M77.4077 10.5304C76.9899 10.5304 76.6734 10.6716 76.5024 10.8893V9.43624H75.5529V13.5541H76.5024V11.9481C76.5024 11.5305 76.743 11.3422 77.0912 11.3422C77.395 11.3422 77.6419 11.5128 77.6419 11.8775V13.5541H78.5914V11.7481C78.5914 10.954 78.047 10.5304 77.4077 10.5304Z" fill="white"/>
<path d="M80.0918 12.4364H82.339C82.3643 12.3246 82.377 12.207 82.377 12.0834C82.377 11.1951 81.6933 10.5304 80.7691 10.5304C79.7689 10.5304 79.0852 11.2069 79.0852 12.0834C79.0852 12.9599 79.7562 13.6364 80.8387 13.6364C81.4401 13.6364 81.9085 13.4305 82.2187 13.0305L81.4591 12.6246C81.3325 12.754 81.1109 12.8482 80.8514 12.8482C80.5032 12.8482 80.212 12.7423 80.0918 12.4364ZM80.0728 11.7775C80.1614 11.4775 80.4019 11.3128 80.7628 11.3128C81.0476 11.3128 81.3325 11.4363 81.4338 11.7775H80.0728Z" fill="white"/>
<path d="M43.5836 24.3389H45.4299L42.9189 17.4758H40.7666L38.2556 24.3389H40.1019L40.4712 23.2604H43.2143L43.5836 24.3389ZM40.9776 21.7897L41.8428 19.27L42.7079 21.7897H40.9776Z" fill="white"/>
<path d="M49.1615 19.2994C48.4546 19.2994 47.9376 19.5249 47.5894 19.8975V19.4367H46.0069V26.2998H47.5894V23.8781C47.9376 24.2506 48.4546 24.4761 49.1615 24.4761C50.5436 24.4761 51.683 23.3486 51.683 21.8878C51.683 20.4269 50.5436 19.2994 49.1615 19.2994ZM48.8449 23.0839C48.117 23.0839 47.5894 22.6231 47.5894 21.8878C47.5894 21.1525 48.117 20.6917 48.8449 20.6917C49.5729 20.6917 50.1004 21.1525 50.1004 21.8878C50.1004 22.6231 49.5729 23.0839 48.8449 23.0839Z" fill="white"/>
<path d="M55.7349 19.2994C55.028 19.2994 54.511 19.5249 54.1628 19.8975V19.4367H52.5803V26.2998H54.1628V23.8781C54.511 24.2506 55.028 24.4761 55.7349 24.4761C57.117 24.4761 58.2564 23.3486 58.2564 21.8878C58.2564 20.4269 57.117 19.2994 55.7349 19.2994ZM55.4183 23.0839C54.6904 23.0839 54.1628 22.6231 54.1628 21.8878C54.1628 21.1525 54.6904 20.6917 55.4183 20.6917C56.1463 20.6917 56.6738 21.1525 56.6738 21.8878C56.6738 22.6231 56.1463 23.0839 55.4183 23.0839Z" fill="white"/>
<path d="M59.1537 24.3389H60.7362V17.1817H59.1537V24.3389Z" fill="white"/>
<path d="M63.3081 22.4761H67.0535C67.0957 22.2898 67.1168 22.0937 67.1168 21.8878C67.1168 20.4073 65.9773 19.2994 64.437 19.2994C62.77 19.2994 61.6306 20.4269 61.6306 21.8878C61.6306 23.3486 62.7489 24.4761 64.553 24.4761C65.5553 24.4761 66.3361 24.133 66.853 23.4663L65.587 22.7898C65.376 23.0055 65.0067 23.1624 64.5741 23.1624C63.9939 23.1624 63.5085 22.9859 63.3081 22.4761ZM63.2764 21.378C63.4241 20.8779 63.8251 20.6034 64.4264 20.6034C64.9012 20.6034 65.376 20.8093 65.5448 21.378H63.2764Z" fill="white"/>
<path d="M73.2896 24.4761C74.8933 24.4761 76.0327 23.6918 76.0327 22.3682C76.0327 20.9172 74.7772 20.5544 73.6589 20.2407C72.5089 19.9171 72.3295 19.7014 72.3295 19.3877C72.3295 19.1132 72.5933 18.868 73.1208 18.868C73.796 18.868 74.1442 19.172 74.3974 19.6622L75.8217 18.8877C75.2836 17.8778 74.3341 17.3386 73.1208 17.3386C71.8442 17.3386 70.6414 18.1033 70.6414 19.4269C70.6414 20.7407 71.7176 21.2309 72.8148 21.5152C73.9226 21.7996 74.3446 21.9662 74.3446 22.3878C74.3446 22.6525 74.1442 22.9467 73.3424 22.9467C72.5089 22.9467 72.0552 22.5643 71.7914 21.9956L70.3355 22.78C70.7469 23.7898 71.7387 24.4761 73.2896 24.4761Z" fill="white"/>
<path d="M79.7603 20.8485V19.4367H78.6736V18.0641L77.091 18.5053V19.4367H76.247V20.8485H77.091V22.5839C77.091 23.9565 77.6924 24.535 79.7603 24.3389V23.0055C79.064 23.0447 78.6736 23.0055 78.6736 22.5839V20.8485H79.7603Z" fill="white"/>
<path d="M83.0854 24.4761C84.6363 24.4761 85.8813 23.3486 85.8813 21.8878C85.8813 20.4269 84.6363 19.2994 83.0854 19.2994C81.5345 19.2994 80.2896 20.4269 80.2896 21.8878C80.2896 23.3486 81.5345 24.4761 83.0854 24.4761ZM83.0854 23.0447C82.3996 23.0447 81.8721 22.5839 81.8721 21.8878C81.8721 21.1917 82.3996 20.7309 83.0854 20.7309C83.7712 20.7309 84.2987 21.1917 84.2987 21.8878C84.2987 22.5839 83.7712 23.0447 83.0854 23.0447Z" fill="white"/>
<path d="M88.359 20.3093V19.4367H86.7764V24.3389H88.359V22.1231C88.359 21.1525 89.2874 20.9074 89.9415 21.0054V19.3387C89.2769 19.3387 88.57 19.6524 88.359 20.3093Z" fill="white"/>
<path d="M91.9405 22.4761H95.6859C95.7281 22.2898 95.7492 22.0937 95.7492 21.8878C95.7492 20.4073 94.6098 19.2994 93.0694 19.2994C91.4024 19.2994 90.263 20.4269 90.263 21.8878C90.263 23.3486 91.3813 24.4761 93.1855 24.4761C94.1878 24.4761 94.9685 24.133 95.4855 23.4663L94.2194 22.7898C94.0084 23.0055 93.6391 23.1624 93.2066 23.1624C92.6263 23.1624 92.141 22.9859 91.9405 22.4761ZM91.9089 21.378C92.0566 20.8779 92.4575 20.6034 93.0589 20.6034C93.5336 20.6034 94.0084 20.8093 94.1772 21.378H91.9089Z" fill="white"/>
</svg>
